# xmcd CD database file
#
# Track frame offsets:
#	150
#	8885
#	19016
#	30480
#	42890
#	44550
#	57117
#	69030
#	79382
#	90117
#	99703
#	102369
#	113856
#	127938
#	154708
#
# Disc length: 2158 seconds
#
# Revision: 2
# Processed by: cddbd v1.5.1PL2 Copyright (c) Steve Scherf et al.
# Submitted via: CDex 1.51
#
DISCID=ad086c0f
DTITLE=チューリップ - ALL BECAUSE OF YOU GUYS〜すべて君たちのせいさ〜
DYEAR=1976
DGENRE=
TTITLE0=ALL BECAUSE OF YOU GUYS-PROLOGUE
TTITLE1=WE CAN WORK IT OUT
TTITLE2=YOUR MOTHER SHOULD KNOW
TTITLE3=I NEED YOU
TTITLE4=ANOTHER GIRL
TTITLE5=HERE THERE AND EVERYWHERE
TTITLE6=THE NIGHT BEFORE
TTITLE7=BLACKBIRD
TTITLE8=WAIT
TTITLE9=FOR NO ONE
TTITLE10=LADY MADONNA
TTITLE11=MARTHA MY DEAR
TTITLE12=TWO OF US
TTITLE13=HEY JUDE
TTITLE14=ALL BECAUSE OF YOU GUYS-EPILOGUE
EXTD=YEAR: 1976
EXTT0=
EXTT1=
EXTT2=
EXTT3=
EXTT4=
EXTT5=
EXTT6=
EXTT7=
EXTT8=
EXTT9=
EXTT10=
EXTT11=
EXTT12=
EXTT13=
EXTT14=
PLAYORDER=
